<svg xmlns="http://www.w3.org/2000/svg" width="24" height="24" viewBox="0 0 24 24" fill="none">
  <path d="M16.9597 5.62049L16.3221 7.01311L14.9194 7.64611L16.3221 8.27912L16.9597 9.67173L17.5973 8.27912L19 7.64611L17.5973 7.01311L16.9597 5.62049Z" fill="currentColor"/>
  <path d="M10.0228 4C11.7063 4 12.8897 4.93756 13.6395 6.18941C14.3588 7.39039 14.7386 8.95377 14.9314 10.5389C14.9435 10.6385 14.9525 10.739 14.9633 10.8396C15.6154 10.8273 16.3067 10.8426 17.0386 10.8895L18.1839 10.9631V19.7998H15.7355V13.2688C15.5188 13.2651 15.3082 13.2637 15.1035 13.2664C15.1385 15.7089 14.8949 18.1863 14.6054 19.9913L12.1874 19.6083C12.4563 17.9313 12.6756 15.6786 12.6576 13.4832C10.617 13.849 9.47727 14.624 8.83766 15.4091C7.81417 16.6655 7.75223 18.3272 7.96577 19.5996L5.55091 20L5.4736 19.5181C5.09287 17.0409 4.81228 13.5412 5.15401 10.5476C5.33494 8.96265 5.70262 7.39784 6.41404 6.19495C7.15666 4.93933 8.33745 4.00002 10.0228 4ZM10.0228 6.43074C9.42306 6.43075 8.95067 6.70683 8.52525 7.42614C8.06871 8.19823 7.75309 9.36818 7.5872 10.8214C7.49639 11.6169 7.45523 12.461 7.45012 13.3163C8.59359 12.2051 10.2431 11.4013 12.5229 11.043C12.5151 10.9718 12.5092 10.9006 12.5006 10.8301C12.3238 9.37693 11.999 8.20565 11.5355 7.43168C11.1024 6.70865 10.6243 6.43074 10.0228 6.43074Z" fill="currentColor"/>
</svg>
