<svg xmlns="http://www.w3.org/2000/svg" width="24" height="24" viewBox="0 0 24 24" fill="none">
  <path fill-rule="evenodd" clip-rule="evenodd" d="M16.1924 6.50411C13.2689 6.50414 11.1605 8.07723 9.64638 10.2303C9.87288 10.3006 10.0972 10.3847 10.3166 10.4852C11.2203 10.8992 11.98 11.5506 12.5773 12.4498C12.8641 12.8817 13.1128 13.3704 13.3248 13.9186C14.6585 13.5957 16.1474 13.4095 17.8207 13.4095H19.1579V20H16.4827V15.9918C15.5754 16.0575 14.7403 16.1885 13.9688 16.3766C14.1454 17.4381 14.2441 18.6425 14.2673 20H11.5913C11.5721 18.9661 11.507 18.071 11.4046 17.2969C9.92785 18.016 8.73133 18.9644 7.69243 20H4.00082L4 4H6.67516V9.99178C8.34421 7.14048 11.0957 4.31036 15.403 4H16.1924V6.50411ZM8.32895 12.5263C7.57025 14.1325 7.14247 15.6756 6.91283 17.1891C8.01231 16.2597 9.28565 15.4143 10.8002 14.759C10.6514 14.3802 10.4896 14.0618 10.3141 13.7977C9.96296 13.269 9.56999 12.9579 9.15214 12.7664C8.91199 12.6565 8.63923 12.5762 8.32895 12.5263Z" fill="currentColor"/>
  <path d="M17.8947 7.36842L17.2368 8.81579L15.7895 9.47368L17.2368 10.1316L17.8947 11.5789L18.5526 10.1316L20 9.47368L18.5526 8.81579L17.8947 7.36842Z" fill="currentColor"/>
</svg>
