<svg width="28" height="28" viewBox="0 0 28 28" fill="none" xmlns="http://www.w3.org/2000/svg">
  <path fill-rule="evenodd" clip-rule="evenodd" d="M21.782 3.33577C20.9264 2.8998 19.9137 2.8998 19.0581 3.33577C18.6302 3.55377 18.2582 3.92671 17.8279 4.35818L4.67698 17.5092C4.32287 17.8631 4.06847 18.1174 3.85947 18.4051C3.44206 18.9796 3.16654 19.6448 3.05545 20.3462C2.99983 20.6974 2.99991 21.057 3.00003 21.5577L3.00005 22.6004L2.99985 22.6814C2.99882 22.9631 2.99756 23.3095 3.09793 23.6184C3.29577 24.2273 3.77314 24.7047 4.38201 24.9025C4.69094 25.0029 5.0373 25.0016 5.31907 25.0006L5.40005 25.0004L6.44273 25.0004C6.94338 25.0005 7.30306 25.0006 7.65425 24.945C8.35566 24.8339 9.02081 24.5584 9.59533 24.141C9.883 23.932 10.1373 23.6776 10.4912 23.3235L23.6422 10.1726C24.0737 9.74217 24.4466 9.37018 24.6646 8.94234C25.1006 8.08669 25.1006 7.07404 24.6646 6.2184C24.4467 5.79057 24.0737 5.41858 23.6423 4.98821L23.0122 4.35819C22.5819 3.92671 22.2099 3.55377 21.782 3.33577ZM19.9661 5.11778C20.2513 4.97246 20.5888 4.97246 20.874 5.11778C20.9796 5.17156 21.1114 5.28588 21.6928 5.86737L22.133 6.30758C22.7145 6.88906 22.8288 7.02083 22.8826 7.12638C23.028 7.41159 23.028 7.74914 22.8826 8.03436C22.8288 8.13991 22.7145 8.27167 22.133 8.85316L21.275 9.71118L18.2892 6.72539L19.1473 5.86737C19.7287 5.28588 19.8605 5.17156 19.9661 5.11778ZM16.875 8.1396L6.14233 18.8723C5.71687 19.2978 5.58239 19.4363 5.4775 19.5806C5.24561 19.8998 5.09254 20.2694 5.03083 20.659C5.00291 20.8353 5.00005 21.0283 5.00005 21.63V22.6004C5.00005 22.7974 5.00039 22.9051 5.00467 22.9834L5.00536 22.9951L5.01702 22.9958C5.09529 23 5.20302 23.0004 5.40005 23.0004H6.3704C6.97209 23.0004 7.16513 22.9975 7.34138 22.9696C7.73105 22.9079 8.10058 22.7548 8.41976 22.5229C8.56413 22.418 8.70266 22.2836 9.12812 21.8581L19.8608 11.1254L16.875 8.1396Z" fill="currentColor"/>
</svg>
