<svg width="24" height="24" viewBox="0 0 24 24" fill="currentColor" xmlns="http://www.w3.org/2000/svg">
<path d="M3.2998 17C2.8998 16.3 2.4998 15.5 2.2998 14.7C2.7998 14.4 3.1998 14.1 3.4998 13.6C3.7998 13.1 3.8998 12.6 3.8998 12C3.8998 11.4 3.6998 10.9 3.4998 10.4C3.1998 9.9 2.7998 9.5 2.2998 9.3C2.7998 7.7 3.5998 6.2 4.7998 5C5.2998 5.3 5.79981 5.5 6.39981 5.5C6.9998 5.5 7.4998 5.4 7.9998 5.1C8.4998 4.8 8.89981 4.4 9.0998 3.9C9.39981 3.4 9.4998 2.9 9.4998 2.3C11.0998 1.9 12.8998 1.9 14.4998 2.3C14.4998 2.9 14.4998 3.4 14.8998 3.9C15.1998 4.4 15.5998 4.8 15.9998 5.1C16.4998 5.4 16.9998 5.5 17.5998 5.5C18.1998 5.5 18.6998 5.3 19.1998 5C19.7998 5.6 20.2998 6.3 20.6998 7C21.0998 7.7 21.4998 8.5 21.6998 9.3C21.1998 9.6 20.7998 9.9 20.4998 10.4C20.1998 10.9 20.0998 11.4 20.0998 12C20.0998 12.6 20.2998 13.1 20.4998 13.6C20.7998 14.1 21.1998 14.5 21.6998 14.7C21.1998 16.3 20.3998 17.8 19.1998 19C18.6998 18.7 18.1998 18.5 17.5998 18.5C16.9998 18.5 16.4998 18.6 15.9998 18.9C15.4998 19.2 15.0998 19.6 14.8998 20.1C14.5998 20.6 14.4998 21.1 14.4998 21.7C12.8998 22.1 11.0998 22.1 9.4998 21.7C9.4998 21.1 9.4998 20.6 9.0998 20.1C8.7998 19.6 8.3998 19.2 7.9998 18.9C7.4998 18.6 6.9998 18.5 6.39981 18.5C5.79981 18.5 5.2998 18.7 4.7998 19C4.1998 18.4 3.6998 17.7 3.2998 17ZM8.9998 17.2C10.0998 17.8 10.8998 18.8 11.1998 20C11.6998 20 12.1998 20 12.6998 20C13.0998 18.8 13.8998 17.8 14.9998 17.2C16.0998 16.6 17.2998 16.4 18.4998 16.6C18.7998 16.2 18.9998 15.8 19.1998 15.3C18.3998 14.4 17.8998 13.2 17.8998 12C17.8998 10.7 18.3998 9.6 19.1998 8.7C18.9998 8.2 18.6998 7.8 18.3998 7.4C17.1998 7.7 15.8998 7.4 14.8998 6.8C13.7998 6.2 12.9998 5.2 12.6998 4C12.1998 4 11.6998 4 11.1998 4C10.7998 5.2 9.9998 6.2 8.8998 6.8C7.7998 7.4 6.5998 7.6 5.3998 7.4C5.0998 7.8 4.8998 8.2 4.6998 8.7C5.4998 9.6 5.9998 10.8 5.9998 12C5.9998 13.3 5.4998 14.4 4.6998 15.3C4.8998 15.8 5.1998 16.2 5.4998 16.6C6.6998 16.3 7.9998 16.6 8.9998 17.2ZM11.9998 15C11.1998 15 10.3998 14.7 9.8998 14.1C9.2998 13.5 8.9998 12.8 8.9998 12C8.9998 11.2 9.2998 10.4 9.8998 9.9C10.4998 9.3 11.1998 9 11.9998 9C12.7998 9 13.5998 9.3 14.0998 9.9C14.6998 10.5 14.9998 11.2 14.9998 12C14.9998 12.8 14.6998 13.6 14.0998 14.1C13.4998 14.7 12.7998 15 11.9998 15ZM11.9998 13C12.2998 13 12.4998 12.9 12.6998 12.7C12.8998 12.5 12.9998 12.3 12.9998 12C12.9998 11.7 12.8998 11.5 12.6998 11.3C12.4998 11.1 12.2998 11 11.9998 11C11.6998 11 11.4998 11.1 11.2998 11.3C11.0998 11.5 10.9998 11.7 10.9998 12C10.9998 12.3 11.0998 12.5 11.2998 12.7C11.4998 12.9 11.6998 13 11.9998 13Z" fill="#F95363"/>
<path d="M17.3002 22.9C16.1002 22.9 15.2002 21.9 15.2002 20.6C15.2002 19.3 15.9002 18.6 16.9002 18.4H15.9002L15.5002 2.9H19.3002L18.9002 18.4H17.9002C18.9002 18.6 19.5002 19.5 19.5002 20.6C19.5002 21.7 18.6002 22.9 17.3002 22.9Z" fill="#F95363"/>
<path d="M18.6001 3.6L18.2001 17.8H16.5001L16.1001 3.6H18.5001M17.4001 19C18.3001 19 18.9001 19.7 18.9001 20.6C18.9001 21.5 18.3001 22.2 17.4001 22.2C16.5001 22.2 15.9001 21.5 15.9001 20.6C15.9001 19.7 16.5001 19 17.4001 19ZM19.9001 2.3H14.8001V3.6L15.2001 17.8V18.7C14.8001 19.2 14.6001 19.9 14.6001 20.6C14.6001 22.2 15.8001 23.5 17.4001 23.5C19.0001 23.5 20.2001 22.3 20.2001 20.6C20.2001 18.9 20.0001 19.2 19.5001 18.7V17.8L19.9001 3.6V2.3Z" fill="white"/>
</svg>
